{"asset":{"version":"2.0","generator":"Blockbench 4.12.6 glTF exporter"},"scenes":[{"nodes":[3],"name":"blockbench_export"}],"scene":0,"nodes":[{"translation":[0,-2.5,0],"name":"cylinder","mesh":0},{"translation":[0,-3.59375,0],"name":"torus","mesh":1},{"rotation":[0,-0.7071067811865475,0,0.7071067811865476],"translation":[0,3.59375,0],"name":"torus","mesh":2},{"children":[0,1,2]}],"bufferViews":[{"buffer":0,"byteOffset":0,"byteLength":384,"target":34962,"byteStride":12},{"buffer":0,"byteOffset":384,"byteLength":384,"target":34962,"byteStride":12},{"buffer":0,"byteOffset":768,"byteLength":256,"target":34962,"byteStride":8},{"buffer":0,"byteOffset":1024,"byteLength":96,"target":34963},{"buffer":0,"byteOffset":1120,"byteLength":3072,"target":34962,"byteStride":12},{"buffer":0,"byteOffset":4192,"byteLength":3072,"target":34962,"byteStride":12},{"buffer":0,"byteOffset":7264,"byteLength":2048,"target":34962,"byteStride":8},{"buffer":0,"byteOffset":9312,"byteLength":768,"target":34963},{"buffer":0,"byteOffset":10080,"byteLength":3072,"target":34962,"byteStride":12},{"buffer":0,"byteOffset":13152,"byteLength":3072,"target":34962,"byteStride":12},{"buffer":0,"byteOffset":16224,"byteLength":2048,"target":34962,"byteStride":8},{"buffer":0,"byteOffset":18272,"byteLength":768,"target":34963}],"buffers":[{"byteLength":19040,"uri":"data:application/octet-stream;base64,"}],"accessors":[{"bufferView":0,"componentType":5126,"count":32,"max":[4.375,8.125,4.375],"min":[-4.375,-3.125,-4.375],"type":"VEC3"},{"bufferView":1,"componentType":5126,"count":32,"max":[1,0,1],"min":[-1,0,-1],"type":"VEC3"},{"bufferView":2,"componentType":5126,"count":32,"max":[1,1],"min":[0,0],"type":"VEC2"},{"bufferView":3,"componentType":5123,"count":48,"max":[31],"min":[0],"type":"SCALAR"},{"bufferView":4,"componentType":5126,"count":256,"max":[4.84375,1.25,4.84375],"min":[-4.84375,-1.25,-4.84375],"type":"VEC3"},{"bufferView":5,"componentType":5126,"count":256,"max":[0.9660311341285706,0.8417501449584961,0.9660311341285706],"min":[-0.9660311341285706,-0.8417501449584961,-0.9660311341285706],"type":"VEC3"},{"bufferView":6,"componentType":5126,"count":256,"max":[0.9640281200408936,1.008887529373169],"min":[0,0],"type":"VEC2"},{"bufferView":7,"componentType":5123,"count":384,"max":[255],"min":[0],"type":"SCALAR"},{"bufferView":8,"componentType":5126,"count":256,"max":[4.84375,1.25,4.84375],"min":[-4.84375,-1.25,-4.84375],"type":"VEC3"},{"bufferView":9,"componentType":5126,"count":256,"max":[0.9660311341285706,0.8417501449584961,0.9660311341285706],"min":[-0.9660311341285706,-0.8417501449584961,-0.9660311341285706],"type":"VEC3"},{"bufferView":10,"componentType":5126,"count":256,"max":[0.9640281200408936,1.008887529373169],"min":[0,0],"type":"VEC2"},{"bufferView":11,"componentType":5123,"count":384,"max":[255],"min":[0],"type":"SCALAR"}],"materials":[{"pbrMetallicRoughness":{"metallicFactor":0,"roughnessFactor":1,"baseColorTexture":{"index":0}},"alphaMode":"MASK","alphaCutoff":0.05,"doubleSided":true}],"textures":[{"sampler":0,"source":0,"name":"texture"}],"samplers":[{"magFilter":9728,"minFilter":9728,"wrapS":33071,"wrapT":33071}],"images":[{"mimeType":"image/png","name":"protect_col_texture.png","uri":"protect_col_texture.png"}],"meshes":[{"primitives":[{"mode":4,"attributes":{"POSITION":0,"NORMAL":1,"TEXCOORD_0":2},"indices":3,"material":0}]},{"primitives":[{"mode":4,"attributes":{"POSITION":4,"NORMAL":5,"TEXCOORD_0":6},"indices":7,"material":0}]},{"primitives":[{"mode":4,"attributes":{"POSITION":8,"NORMAL":9,"TEXCOORD_0":10},"indices":11,"material":0}]}]}