{"asset":{"version":"2.0","generator":"Blockbench 4.6.5 glTF exporter"},"scenes":[{"nodes":[5],"name":"blockbench_export"}],"scene":0,"nodes":[{"rotation":[-0.4999997499999387,0.5000002499999363,-0.4999997499999386,0.5000002499999364],"translation":[0,14.375,0],"name":"barrel_cyl_1","mesh":0},{"rotation":[-0.49999974999993746,0.5000002499999375,-0.49999974999993735,0.5000002499999376],"translation":[0,14.375,6.25],"name":"barrel_cyl_2","mesh":1},{"translation":[0,0,-6.25],"name":"bone2","children":[1]},{"name":"bone","children":[0,2]},{"translation":[0,-5,0],"name":"root","children":[3]},{"children":[4]}],"bufferViews":[{"buffer":0,"byteOffset":0,"byteLength":672,"target":34962,"byteStride":12},{"buffer":0,"byteOffset":672,"byteLength":672,"target":34962,"byteStride":12},{"buffer":0,"byteOffset":1344,"byteLength":448,"target":34962,"byteStride":8},{"buffer":0,"byteOffset":1792,"byteLength":144,"target":34963},{"buffer":0,"byteOffset":1936,"byteLength":672,"target":34962,"byteStride":12},{"buffer":0,"byteOffset":2608,"byteLength":672,"target":34962,"byteStride":12},{"buffer":0,"byteOffset":3280,"byteLength":448,"target":34962,"byteStride":8},{"buffer":0,"byteOffset":3728,"byteLength":144,"target":34963},{"buffer":0,"byteOffset":3872,"byteLength":12},{"buffer":0,"byteOffset":3884,"byteLength":36}],"buffers":[{"byteLength":3920,"uri":"data:application/octet-stream;base64,"}],"accessors":[{"bufferView":0,"componentType":5126,"count":56,"max":[15.3125,6.25,0.9375],"min":[13.4375,1.339206523454095e-14,-0.9375],"type":"VEC3"},{"bufferView":1,"componentType":5126,"count":56,"max":[1,1,1],"min":[-1,0,-1],"type":"VEC3"},{"bufferView":2,"componentType":5126,"count":56,"max":[0.65625,1],"min":[0,0.6875],"type":"VEC2"},{"bufferView":3,"componentType":5123,"count":72,"max":[55],"min":[0],"type":"SCALAR"},{"bufferView":4,"componentType":5126,"count":56,"max":[15,11.25,0.625],"min":[13.75,6.25,-0.625],"type":"VEC3"},{"bufferView":5,"componentType":5126,"count":56,"max":[1,1,1],"min":[-1,0,-1],"type":"VEC3"},{"bufferView":6,"componentType":5126,"count":56,"max":[1,1],"min":[0.59375,0.75],"type":"VEC2"},{"bufferView":7,"componentType":5123,"count":72,"max":[55],"min":[0],"type":"SCALAR"},{"bufferView":8,"componentType":5126,"count":3,"max":[0.6666666865348816],"min":[0],"type":"SCALAR"},{"bufferView":9,"componentType":5126,"count":3,"max":[0,0,-5],"min":[0,0,-6.25],"type":"VEC3"}],"materials":[{"pbrMetallicRoughness":{"metallicFactor":0,"roughnessFactor":1,"baseColorTexture":{"index":0}},"alphaMode":"MASK","alphaCutoff":0.05,"doubleSided":true}],"textures":[{"sampler":0,"source":0,"name":"lv_heavy_cannon_barrel.png"}],"samplers":[{"magFilter":9728,"minFilter":9728,"wrapS":33071,"wrapT":33071}],"images":[{"mimeType":"image/png","uri":"data:image/png;base64,"}],"meshes":[{"primitives":[{"mode":4,"attributes":{"POSITION":0,"NORMAL":1,"TEXCOORD_0":2},"indices":3,"material":0}]},{"primitives":[{"mode":4,"attributes":{"POSITION":4,"NORMAL":5,"TEXCOORD_0":6},"indices":7,"material":0}]}],"animations":[{"name":"animation","samplers":[{"input":8,"output":9,"interpolation":"LINEAR"}],"channels":[{"sampler":0,"target":{"node":2,"path":"translation"}}]}]}