v 1.422473250300982e-15 0.000006250007158481452 -6.250014374996824
v 0.9375000000000016 -0.38832521471739323 -0.000014763325160520448
v 0.9375000000000018 -0.38831896471742233 -6.250014763322037
v 0.38832521472477743 -0.9374999999923439 -0.000015312499943281183
v 0.3883252147247778 -0.937493749992373 -6.250015312496821
v -0.3883252147247759 -0.9374999999923439 -0.000015312499943281183
v -0.38832521472477555 -0.937493749992373 -6.250015312496821
v -0.9374999999999984 -0.38832521471739323 -0.000014763325160520448
v -0.9374999999999982 -0.38831896471742233 -6.250014763322037
v -0.9374999999999988 0.3883252147317706 -0.000013986674734626923
v -0.9374999999999983 0.3883314647317415 -6.250013986671612
v -0.3883252147247767 0.9375000000067191 -0.000013437499951866189
v -0.3883252147247763 0.93750625000669 -6.250013437496829
v 0.3883252147247774 0.9375000000067191 -0.000013437499951866189
v 0.38832521472477777 0.93750625000669 -6.250013437496829
v 0.9375000000000012 0.38832521473177284 -0.00001398667473462692
v 0.9375000000000017 0.38833146473174374 -6.250013986671612
vt 0.15625 0.6875
vt 0.1875 0.6875
vt 0.1875 1
vt 0.15625 1
vt 0.59375 0.78125
vt 0.65625 0.78125
vt 0.625 0.875
vt 0.125 0.6875
vt 0.15625 0.6875
vt 0.15625 1
vt 0.125 1
vt 0.59375 0.78125
vt 0.65625 0.78125
vt 0.625 0.875
vt 0.09375 0.6875
vt 0.125 0.6875
vt 0.125 1
vt 0.09375 1
vt 0.65625 0.78125
vt 0.59375 0.78125
vt 0.625 0.875
vt 0.0625 0.6875
vt 0.09375 0.6875
vt 0.09375 1
vt 0.0625 1
vt 0.65625 0.78125
vt 0.59375 0.78125
vt 0.625 0.875
vt 0.03125 0.6875
vt 0.0625 0.6875
vt 0.0625 1
vt 0.03125 1
vt 0.65625 0.78125
vt 0.59375 0.78125
vt 0.625 0.875
vt 0 0.6875
vt 0.03125 0.6875
vt 0.03125 1
vt 0 1
vt 0.59375 0.78125
vt 0.65625 0.78125
vt 0.625 0.875
vt 0.21875 0.6875
vt 0.25 0.6875
vt 0.25 1
vt 0.21875 1
vt 0.59375 0.78125
vt 0.65625 0.78125
vt 0.625 0.875
vt 0.1875 0.6875
vt 0.21875 0.6875
vt 0.21875 1
vt 0.1875 1
vt 0.59375 0.78125
vt 0.65625 0.78125
vt 0.625 0.875
vn 0.7071067811865474 -0.7071067811861942 -7.071067778704347e-7
vn -1.6653345293127177e-22 9.999999954213301e-7 -0.9999999999995
vn 1.665334536936902e-16 -0.9999999999995 -9.99999995365819e-7
vn -1.6653345293127177e-22 9.999999954213301e-7 -0.9999999999995
vn -0.7071067811865481 -0.7071067811861934 -7.071067779489383e-7
vn -1.6653345293127177e-22 9.999999954213301e-7 -0.9999999999995
vn -1 -2.8970994583848217e-16 -5.551144094123009e-17
vn -1.6653345293127177e-22 9.999999954213301e-7 -0.9999999999995
vn -0.7071067811865488 0.7071067811861929 7.071067778704333e-7
vn -1.6653345293127177e-22 9.999999954213301e-7 -0.9999999999995
vn -1.665334536936902e-16 0.9999999999995 9.99999995365819e-7
vn -1.6653345293127177e-22 9.999999954213301e-7 -0.9999999999995
vn 0.707106781186546 0.7071067811861956 7.071067779489405e-7
vn -1.6653345293127177e-22 9.999999954213301e-7 -0.9999999999995
vn 1 2.8970994583848167e-16 5.551144094123009e-17
vn -1.6653345293127177e-22 9.999999954213301e-7 -0.9999999999995
f 2/1/1 4/2/1 5/3/1 3/4/1
f 3/5/2 5/6/2 1/7/2
f 4/8/3 6/9/3 7/10/3 5/11/3
f 5/12/4 7/13/4 1/14/4
f 6/15/5 8/16/5 9/17/5 7/18/5
f 7/19/6 9/20/6 1/21/6
f 8/22/7 10/23/7 11/24/7 9/25/7
f 9/26/8 11/27/8 1/28/8
f 10/29/9 12/30/9 13/31/9 11/32/9
f 11/33/10 13/34/10 1/35/10
f 12/36/11 14/37/11 15/38/11 13/39/11
f 13/40/12 15/41/12 1/42/12
f 14/43/13 16/44/13 17/45/13 15/46/13
f 15/47/14 17/48/14 1/49/14
f 16/50/15 2/51/15 3/52/15 17/53/15
f 17/54/16 3/55/16 1/56/16
v 2.671474153004283e-15 0.000011250007192487033 -11.250014374994379
v 0.6250000000000022 -0.2588772264758621 -6.250014633880361
v 0.6250000000000022 -0.25887222647585917 -11.250014633877857
v 0.25888347648318727 -0.6249937499924973 -6.250014999996885
v 0.25888347648318727 -0.6249887499924944 -11.25001499999438
v -0.2588834764831816 -0.6249937499924973 -6.250014999996885
v -0.2588834764831816 -0.6249887499924944 -11.25001499999438
v -0.6249999999999968 -0.2588772264758621 -6.250014633880361
v -0.6249999999999968 -0.25887222647585917 -11.250014633877857
v -0.624999999999997 0.25888972649024566 -6.250014116113408
v -0.624999999999997 0.2588947264902486 -11.250014116110902
v -0.2588834764831823 0.6250062500068765 -6.250013749996884
v -0.2588834764831823 0.6250112500068794 -11.250013749994379
v 0.2588834764831871 0.6250062500068765 -6.250013749996884
v 0.2588834764831871 0.6250112500068794 -11.250013749994379
v 0.625000000000002 0.25888972649024566 -6.250014116113408
v 0.625000000000002 0.2588947264902486 -11.250014116110902
vt 0.90625 0.75
vt 0.9375 0.75
vt 0.9375 1
vt 0.90625 1
vt 0.59375 0.96875
vt 0.65625 0.96875
vt 0.625 0.90625
vt 0.875 0.75
vt 0.90625 0.75
vt 0.90625 1
vt 0.875 1
vt 0.59375 0.96875
vt 0.65625 0.96875
vt 0.625 0.90625
vt 0.84375 0.75
vt 0.875 0.75
vt 0.875 1
vt 0.84375 1
vt 0.65625 0.96875
vt 0.59375 0.96875
vt 0.625 0.90625
vt 0.8125 0.75
vt 0.84375 0.75
vt 0.84375 1
vt 0.8125 1
vt 0.65625 0.96875
vt 0.59375 0.96875
vt 0.625 0.90625
vt 0.78125 0.75
vt 0.8125 0.75
vt 0.8125 1
vt 0.78125 1
vt 0.65625 0.96875
vt 0.59375 0.96875
vt 0.625 0.90625
vt 0.75 0.75
vt 0.78125 0.75
vt 0.78125 1
vt 0.75 1
vt 0.65625 0.96875
vt 0.59375 0.96875
vt 0.625 0.90625
vt 0.96875 0.75
vt 1 0.75
vt 1 1
vt 0.96875 1
vt 0.59375 0.96875
vt 0.65625 0.96875
vt 0.625 0.90625
vt 0.9375 0.75
vt 0.96875 0.75
vt 0.96875 1
vt 0.9375 1
vt 0.65625 0.96875
vt 0.59375 0.96875
vt 0.625 0.90625
vn 0.7071067811865499 -0.7071067811861917 -7.071067814423925e-7
vn -2.2204460500537206e-22 0.0000010000000003618226 -0.9999999999995
vn 2.2204460492492028e-16 -0.9999999999995 -0.0000010000000003618226
vn -2.2204460500537206e-22 0.0000010000000003618226 -0.9999999999995
vn -0.7071067811865496 -0.7071067811861921 -7.071067814423928e-7
vn -2.2204460500537206e-22 0.0000010000000003618226 -0.9999999999995
vn -1 -4.900761532556802e-16 -4.900761534332458e-22
vn -2.2204460500537206e-22 0.0000010000000003618226 -0.9999999999995
vn -0.7071067811865479 0.7071067811861937 7.071067814423945e-7
vn -2.2204460500537206e-22 0.0000010000000003618226 -0.9999999999995
vn -2.2204460492492028e-16 0.9999999999995 0.0000010000000003618226
vn -2.2204460500537206e-22 0.0000010000000003618226 -0.9999999999995
vn 0.7071067811865478 0.7071067811861939 7.071067814423946e-7
vn -2.2204460500537206e-22 0.0000010000000003618226 -0.9999999999995
vn 1 4.900761532556802e-16 4.900761534332458e-22
vn -2.2204460500537206e-22 0.0000010000000003618226 -0.9999999999995
f 19/57/17 21/58/17 22/59/17 20/60/17
f 20/61/18 22/62/18 18/63/18
f 21/64/19 23/65/19 24/66/19 22/67/19
f 22/68/20 24/69/20 18/70/20
f 23/71/21 25/72/21 26/73/21 24/74/21
f 24/75/22 26/76/22 18/77/22
f 25/78/23 27/79/23 28/80/23 26/81/23
f 26/82/24 28/83/24 18/84/24
f 27/85/25 29/86/25 30/87/25 28/88/25
f 28/89/26 30/90/26 18/91/26
f 29/92/27 31/93/27 32/94/27 30/95/27
f 30/96/28 32/97/28 18/98/28
f 31/99/29 33/100/29 34/101/29 32/102/29
f 32/103/30 34/104/30 18/105/30
f 33/106/31 19/107/31 20/108/31 34/109/31
f 34/110/32 20/111/32 18/112/32