v 3.125 4.375 3.125
v 3.125 4.375 -3.125
v 3.125 0.625 3.125
v 3.125 0.625 -3.125
v -3.125 4.375 3.125
v -3.125 4.375 -3.125
v -3.125 0.625 3.125
v -3.125 0.625 -3.125
v 1.875 5.625 1.5625
v 1.875 5.625 -1.5625
v -1.875 5.625 1.5625
v -1.875 5.625 -1.5625
vt 0.375 0.625
vt 0 0.625
vt 0 0.375
vt 0.375 0.375
vt 0.78125 0.78125
vt 0.78125 1
vt 0.375 1
vt 0.375 0.78125
vt 0 0.1875
vt 0.21875 0.1875
vt 0.21875 0.375
vt 0 0.375
vt 0.375 0.625
vt 0.375 1
vt 0 1
vt 0 0.625
vt 0.78125 0.53125
vt 0.78125 0.78125
vt 0.375 0.78125
vt 0.375 0.53125
vt 0.78125 0.53125
vt 0.375 0.53125
vt 0.375 0.3125
vt 0.78125 0.3125
vt 0.5384615384615385 0.3035714285714286
vt 0.3076923076923077 0.3035714285714286
vt 0.23076923076923078 0.1875
vt 0.6153846153846154 0.1875
vt 0.5192307692307693 0.3035714285714286
vt 0.3269230769230769 0.3035714285714286
vt 0.23076923076923078 0.1875
vt 0.6153846153846154 0.1875
vt 0.9230769230769231 0.3035714285714286
vt 0.6923076923076923 0.3035714285714286
vt 0.6153846153846154 0.1875
vt 1 0.1875
vt 0.9038461538461539 0.3035714285714286
vt 0.7115384615384616 0.3035714285714286
vt 0.6153846153846154 0.1875
vt 1 0.1875
vn 1 0 0
vn -1 0 0
vn 0 1 0
vn 0 -1 0
vn 0 0 1
vn 0 0 -1
vn 0 0.7808688094430304 0.6246950475544243
vn 0.7071067811865476 0.7071067811865476 0
vn 0 0.7808688094430304 -0.6246950475544243
vn -0.7071067811865476 0.7071067811865476 0
f 2/1/1 1/2/1 3/3/1 4/4/1
f 7/5/2 5/6/2 6/7/2 8/8/2
f 11/9/3 9/10/3 10/11/3 12/12/3
f 4/13/4 3/14/4 7/15/4 8/16/4
f 3/17/5 1/18/5 5/19/5 7/20/5
f 6/21/6 2/22/6 4/23/6 8/24/6
f 9/25/7 11/26/7 5/27/7 1/28/7
f 10/29/8 9/30/8 1/31/8 2/32/8
f 12/33/9 10/34/9 2/35/9 6/36/9
f 11/37/10 12/38/10 6/39/10 5/40/10
v 1.1102230246251563e-16 0.625 1.1102230246251563e-16
v 1.1722777168861618 0 4.375
v 1.1722777168861618 0.625 4.375
v 3.2027222831138378 0 3.2027222831138378
v 3.2027222831138378 0.625 3.2027222831138378
v 4.375 0 1.1722777168861618
v 4.375 0.625 1.1722777168861618
v 4.375 0 -1.1722777168861618
v 4.375 0.625 -1.1722777168861618
v 3.2027222831138378 0 -3.202722283113837
v 3.2027222831138378 0.625 -3.202722283113837
v 1.172277716886163 0 -4.374999999999999
v 1.172277716886163 0.625 -4.374999999999999
v -1.1722777168861596 0 -4.375
v -1.1722777168861596 0.625 -4.375
v -3.202722283113837 0 -3.202722283113839
v -3.202722283113837 0.625 -3.202722283113839
v -4.375 0 -1.1722777168861611
v -4.375 0.625 -1.1722777168861611
v -4.375 0 1.1722777168861596
v -4.375 0.625 1.1722777168861596
v -3.202722283113839 0 3.202722283113837
v -3.202722283113839 0.625 3.202722283113837
v -1.1722777168861613 0 4.375
v -1.1722777168861613 0.625 4.375
vt 0 0.8609467112633693
vt 0.521616696708849 0.8609467112633693
vt 0.521616696708849 1
vt 0 1
vt 6.175206512210294e-17 -0.007708307441458562
vt 0.5038644706766044 0.12729304973513578
vt 0 1
vt 0 0.8609467112633693
vt 0.521616696708849 0.8609467112633693
vt 0.521616696708849 1
vt 0 1
vt 6.175206512210294e-17 -0.00771862434452153
vt 0.5038593121722609 0.12730198440478535
vt 0 1
vt 0 0.8609467112633693
vt 0.521616696708849 0.8609467112633693
vt 0.521616696708849 1
vt 0 1
vt 0.9733730211564149 0.478383303291151
vt 0.9733730211564149 1
vt 0 0.7391916516455754
vt 0 0.8609467112633693
vt 0.521616696708849 0.8609467112633693
vt 0.521616696708849 1
vt 0 1
vt 1.0077083074414588 0.49613552932339544
vt 0.8727069502648647 1
vt 0 0.49613552932339633
vt 0 0.8609467112633693
vt 0.521616696708849 0.8609467112633693
vt 0.521616696708849 1
vt 0 1
vt 1.0077186243445215 0.49614068782773924
vt 0.8726980155952146 1
vt 0 0.4961406878277391
vt 0 0.8609467112633693
vt 0.521616696708849 0.8609467112633693
vt 0.521616696708849 1
vt 0 1
vt 0.521616696708849 1
vt 0 1
vt 0.2608083483544245 0.026626978843585114
vt 0 0.8609467112633693
vt 0.521616696708849 0.8609467112633693
vt 0.521616696708849 1
vt 0 1
vt 0.5038644706766044 1
vt 0 0.8649986428234057
vt 0.5038644706766044 -0.007708307441458562
vt 0 0.8609467112633693
vt 0.521616696708849 0.8609467112633693
vt 0.521616696708849 1
vt 0 1
vt 0.5038593121722608 1
vt 0 0.8649793912506931
vt 0.5038593121722609 -0.00771862434452153
vt 0 0.8609467112633693
vt 0.521616696708849 0.8609467112633693
vt 0.521616696708849 1
vt 0 1
vt 0 1
vt 0 0.478383303291151
vt 0.9733730211564149 0.7391916516455754
vt 0 0.8609467112633693
vt 0.521616696708849 0.8609467112633693
vt 0.521616696708849 1
vt 0 1
vt 0 0.9999999999999999
vt 0.13500135717659434 0.49613552932339555
vt 1.0077083074414586 1
vt 0 0.8609467112633693
vt 0.521616696708849 0.8609467112633693
vt 0.521616696708849 1
vt 0 1
vt 0 0.9999999999999999
vt 0.13502060874930685 0.4961406878277391
vt 1.0077186243445215 1
vt 0 0.8609467112633693
vt 0.521616696708849 0.8609467112633693
vt 0.521616696708849 1
vt 0 1
vt 0 0.026626978843585114
vt 0.521616696708849 0.026626978843585114
vt 0.2608083483544245 1
vn 0.5000000000000001 0 0.8660254037844386
vn 0 1 0
vn 0.8660254037844386 0 0.5000000000000001
vn 0 1 0
vn 1 0 0
vn 0 1 0
vn 0.8660254037844386 0 -0.5000000000000004
vn 0 1 0
vn 0.5000000000000003 0 -0.8660254037844387
vn 0 1 0
vn 4.735324269295862e-16 0 -1
vn 0 1 0
vn -0.49999999999999956 0 -0.8660254037844392
vn 0 1 0
vn -0.8660254037844386 0 -0.5000000000000001
vn 0 1 0
vn -1 0 0
vn 0 1 0
vn -0.866025403784439 0 0.4999999999999996
vn 0 1 0
vn -0.5000000000000002 0 0.8660254037844386
vn 0 1 0
vn 0 0 1
vn 0 1 0
f 14/41/11 16/42/11 17/43/11 15/44/11
f 15/45/12 17/46/12 13/47/12
f 16/48/13 18/49/13 19/50/13 17/51/13
f 17/52/14 19/53/14 13/54/14
f 18/55/15 20/56/15 21/57/15 19/58/15
f 19/59/16 21/60/16 13/61/16
f 20/62/17 22/63/17 23/64/17 21/65/17
f 21/66/18 23/67/18 13/68/18
f 22/69/19 24/70/19 25/71/19 23/72/19
f 23/73/20 25/74/20 13/75/20
f 24/76/21 26/77/21 27/78/21 25/79/21
f 25/80/22 27/81/22 13/82/22
f 26/83/23 28/84/23 29/85/23 27/86/23
f 27/87/24 29/88/24 13/89/24
f 28/90/25 30/91/25 31/92/25 29/93/25
f 29/94/26 31/95/26 13/96/26
f 30/97/27 32/98/27 33/99/27 31/100/27
f 31/101/28 33/102/28 13/103/28
f 32/104/29 34/105/29 35/106/29 33/107/29
f 33/108/30 35/109/30 13/110/30
f 34/111/31 36/112/31 37/113/31 35/114/31
f 35/115/32 37/116/32 13/117/32
f 36/118/33 14/119/33 15/120/33 37/121/33
f 37/122/34 15/123/34 13/124/34