v 0 0.18749882813232419 0
v 0.2847700443187259 -0.4374972656420898 0.6874957031518554
v 0.2071054867772552 0.18749882813232419 0.49999687501953116
v 0.6874957031518554 -0.4374972656420898 0.28477004431872593
v 0.49999687501953116 0.18749882813232419 0.20710548677725524
v 0.6874957031518554 -0.4374972656420898 -0.2847700443187258
v 0.49999687501953116 0.18749882813232419 -0.20710548677725518
v 0.28477004431872593 -0.4374972656420898 -0.6874957031518554
v 0.20710548677725527 0.18749882813232419 -0.49999687501953116
v -0.2847700443187259 -0.4374972656420898 -0.6874957031518554
v -0.20710548677725515 0.18749882813232419 -0.4999968750195313
v -0.6874957031518552 -0.4374972656420898 -0.28477004431872627
v -0.49999687501953105 0.18749882813232419 -0.20710548677725552
v -0.6874957031518554 -0.4374972656420898 0.28477004431872605
v -0.4999968750195311 0.18749882813232419 0.20710548677725532
v -0.2847700443187264 -0.4374972656420898 0.6874957031518552
v -0.20710548677725554 0.18749882813232419 0.49999687501953105
v 0.2847700443187259 -0.49999687501953116 0.6874957031518554
v -0.2847700443187264 -0.49999687501953116 0.6874957031518552
v -1.2721225982834194e-17 -0.49999687501953116 2.5442451965668387e-17
v 0.6874957031518554 -0.49999687501953116 0.28477004431872593
v 0.6874957031518554 -0.49999687501953116 -0.2847700443187258
v 0.28477004431872593 -0.49999687501953116 -0.6874957031518554
v -0.2847700443187259 -0.49999687501953116 -0.6874957031518554
v -0.6874957031518552 -0.49999687501953116 -0.28477004431872627
v -0.6874957031518554 -0.49999687501953116 0.28477004431872605
vt 0.71875 0.5227272727272727
vt 0.5227272727272727 0.71875
vt 0.359375 0.359375
vt 0.25 0.71875
vt 0.5 0.71875
vt 0.5 1
vt 0.25 1
vt 0.5227272727272727 0
vt 0.71875 0.1960227272727273
vt 0.359375 0.359375
vt 0.71875 0.1960227272727273
vt 0.71875 0.5227272727272727
vt 0.359375 0.359375
vt 0.5 0.71875
vt 0.75 0.71875
vt 0.75 1
vt 0.5 1
vt 0.71875 0.1960227272727273
vt 0.71875 0.5227272727272727
vt 0.359375 0.359375
vt 0.5227272727272727 0
vt 0.71875 0.1960227272727273
vt 0.359375 0.359375
vt 0.75 0.71875
vt 1 0.71875
vt 1 1
vt 0.75 1
vt 0.71875 0.5227272727272727
vt 0.5227272727272727 0.71875
vt 0.359375 0.359375
vt 0.19602272727272727 0
vt 0.5227272727272727 0
vt 0.359375 0.359375
vt 0 0.71875
vt 0.25 0.71875
vt 0.25 1
vt 0 1
vt 0.5227272727272727 0.71875
vt 0.19602272727272727 0.71875
vt 0.359375 0.359375
vt 0 0.1960227272727273
vt 0.19602272727272727 0
vt 0.359375 0.359375
vt 0.25 0.71875
vt 0.5 0.71875
vt 0.5 1
vt 0.25 1
vt 0.19602272727272727 0.71875
vt 0 0.5227272727272727
vt 0.359375 0.359375
vt 0 0.5227272727272727
vt 0 0.1960227272727273
vt 0.359375 0.359375
vt 0.5 0.71875
vt 0.75 0.71875
vt 0.75 1
vt 0.5 1
vt 0 0.5227272727272727
vt 0 0.1960227272727273
vt 0.359375 0.359375
vt 0.19602272727272727 0.71875
vt 0 0.5227272727272727
vt 0.359375 0.359375
vt 0.75 0.71875
vt 1 0.71875
vt 1 1
vt 0.75 1
vt 0 0.1960227272727273
vt 0.19602272727272727 0
vt 0.359375 0.359375
vt 0.5227272727272727 0.71875
vt 0.19602272727272727 0.71875
vt 0.359375 0.359375
vt 0 0.71875
vt 0.25 0.71875
vt 0.25 1
vt 0 1
vt 0.19602272727272727 0
vt 0.5227272727272727 0
vt 0.359375 0.359375
vt 0.71875 0.21875
vt 1 0.21875
vt 1 0.25
vt 0.71875 0.25
vt 0.71875 0.1875
vt 1 0.1875
vt 1 0.21875
vt 0.71875 0.21875
vt 0.71875 0.09375
vt 1 0.09375
vt 1 0.125
vt 0.71875 0.125
vt 0.71875 0.15625
vt 1 0.15625
vt 1 0.1875
vt 0.71875 0.1875
vt 0.71875 0
vt 1 0
vt 1 0.03125
vt 0.71875 0.03125
vt 0.71875 0.125
vt 1 0.125
vt 1 0.15625
vt 0.71875 0.15625
vt 0.71875 0.03125
vt 1 0.03125
vt 1 0.0625
vt 0.71875 0.0625
vt 0.71875 0.0625
vt 1 0.0625
vt 1 0.09375
vt 0.71875 0.09375
vn 0 -1 0
vn 0.6772854614785964 0.28734788556634544 0.6772854614785964
vn 0 1 0
vn 0 -1 0
vn 0.9578262852211514 0.2873478855663454 0
vn 0 1 0
vn 0 -1 0
vn 0.6772854614785964 0.28734788556634544 -0.6772854614785963
vn 0 1 0
vn 0 -1 0
vn 0 0.2873478855663453 -0.9578262852211515
vn 0 1 0
vn 0 -1 0
vn -0.6772854614785963 0.2873478855663454 -0.6772854614785966
vn 0 1 0
vn 0 -1 0
vn -0.9578262852211515 0.2873478855663455 -3.7342205419614934e-16
vn 0 1 0
vn 0 -1 0
vn -0.6772854614785966 0.28734788556634544 0.6772854614785963
vn 0 1 0
vn 0 -1 0
vn -3.734220541961493e-16 0.2873478855663454 0.9578262852211514
vn 0 1 0
vn -3.8986407029948054e-16 0 1
vn 0.7071067811865475 0 0.7071067811865476
vn 1 0 0
vn 0.7071067811865476 0 -0.7071067811865475
vn 0 0 -1
vn -0.7071067811865475 0 -0.7071067811865477
vn -1 0 -3.8986407029948054e-16
vn -0.7071067811865477 0 0.7071067811865475
f 21/1/1 18/2/1 20/3/1
f 2/4/2 4/5/2 5/6/2 3/7/2
f 3/8/3 5/9/3 1/10/3
f 22/11/4 21/12/4 20/13/4
f 4/14/5 6/15/5 7/16/5 5/17/5
f 5/18/6 7/19/6 1/20/6
f 23/21/7 22/22/7 20/23/7
f 6/24/8 8/25/8 9/26/8 7/27/8
f 7/28/9 9/29/9 1/30/9
f 24/31/10 23/32/10 20/33/10
f 8/34/11 10/35/11 11/36/11 9/37/11
f 9/38/12 11/39/12 1/40/12
f 25/41/13 24/42/13 20/43/13
f 10/44/14 12/45/14 13/46/14 11/47/14
f 11/48/15 13/49/15 1/50/15
f 26/51/16 25/52/16 20/53/16
f 12/54/17 14/55/17 15/56/17 13/57/17
f 13/58/18 15/59/18 1/60/18
f 19/61/19 26/62/19 20/63/19
f 14/64/20 16/65/20 17/66/20 15/67/20
f 15/68/21 17/69/21 1/70/21
f 18/71/22 19/72/22 20/73/22
f 16/74/23 2/75/23 3/76/23 17/77/23
f 17/78/24 3/79/24 1/80/24
f 19/81/25 18/82/25 2/83/25 16/84/25
f 18/85/26 21/86/26 4/87/26 2/88/26
f 21/89/27 22/90/27 6/91/27 4/92/27
f 22/93/28 23/94/28 8/95/28 6/96/28
f 23/97/29 24/98/29 10/99/29 8/100/29
f 24/101/30 25/102/30 12/103/30 10/104/30
f 25/105/31 26/106/31 14/107/31 12/108/31
f 26/109/32 19/110/32 16/111/32 14/112/32