{"asset":{"version":"2.0","generator":"Blockbench 4.12.6 glTF exporter"},"scenes":[{"nodes":[7],"name":"blockbench_export"}],"scene":0,"nodes":[{"translation":[0,-6.25,0],"name":"cylinder","mesh":0},{"translation":[0,-5,0],"name":"cylinder","mesh":1},{"translation":[0,-3.75,-2.1875],"name":"pyramid","mesh":2},{"rotation":[0,-1,0,6.123233995736766e-17],"translation":[0,-3.75,2.1875],"name":"pyramid","mesh":3},{"rotation":[0,-0.7071067811865475,0,0.7071067811865476],"translation":[2.1875,-3.75,0],"name":"pyramid","mesh":4},{"rotation":[0,0.7071067811865475,0,0.7071067811865476],"translation":[-2.1875,-3.75,0],"name":"pyramid","mesh":5},{"translation":[0,-6.25,0],"name":"cylinder","mesh":6},{"children":[0,1,2,3,4,5,6]}],"bufferViews":[{"buffer":0,"byteOffset":0,"byteLength":960,"target":34962,"byteStride":12},{"buffer":0,"byteOffset":960,"byteLength":960,"target":34962,"byteStride":12},{"buffer":0,"byteOffset":1920,"byteLength":640,"target":34962,"byteStride":8},{"buffer":0,"byteOffset":2560,"byteLength":192,"target":34963},{"buffer":0,"byteOffset":2752,"byteLength":960,"target":34962,"byteStride":12},{"buffer":0,"byteOffset":3712,"byteLength":960,"target":34962,"byteStride":12},{"buffer":0,"byteOffset":4672,"byteLength":640,"target":34962,"byteStride":8},{"buffer":0,"byteOffset":5312,"byteLength":192,"target":34963},{"buffer":0,"byteOffset":5504,"byteLength":192,"target":34962,"byteStride":12},{"buffer":0,"byteOffset":5696,"byteLength":192,"target":34962,"byteStride":12},{"buffer":0,"byteOffset":5888,"byteLength":128,"target":34962,"byteStride":8},{"buffer":0,"byteOffset":6016,"byteLength":36,"target":34963},{"buffer":0,"byteOffset":6052,"byteLength":192,"target":34962,"byteStride":12},{"buffer":0,"byteOffset":6244,"byteLength":192,"target":34962,"byteStride":12},{"buffer":0,"byteOffset":6436,"byteLength":128,"target":34962,"byteStride":8},{"buffer":0,"byteOffset":6564,"byteLength":36,"target":34963},{"buffer":0,"byteOffset":6600,"byteLength":192,"target":34962,"byteStride":12},{"buffer":0,"byteOffset":6792,"byteLength":192,"target":34962,"byteStride":12},{"buffer":0,"byteOffset":6984,"byteLength":128,"target":34962,"byteStride":8},{"buffer":0,"byteOffset":7112,"byteLength":36,"target":34963},{"buffer":0,"byteOffset":7148,"byteLength":192,"target":34962,"byteStride":12},{"buffer":0,"byteOffset":7340,"byteLength":192,"target":34962,"byteStride":12},{"buffer":0,"byteOffset":7532,"byteLength":128,"target":34962,"byteStride":8},{"buffer":0,"byteOffset":7660,"byteLength":36,"target":34963},{"buffer":0,"byteOffset":7696,"byteLength":960,"target":34962,"byteStride":12},{"buffer":0,"byteOffset":8656,"byteLength":960,"target":34962,"byteStride":12},{"buffer":0,"byteOffset":9616,"byteLength":640,"target":34962,"byteStride":8},{"buffer":0,"byteOffset":10256,"byteLength":192,"target":34963}],"buffers":[{"byteLength":10448,"uri":"data:application/octet-stream;base64,"}],"accessors":[{"bufferView":0,"componentType":5126,"count":80,"max":[2.5,5.625,2.5],"min":[-2.5,1.25,-2.5],"type":"VEC3"},{"bufferView":1,"componentType":5126,"count":80,"max":[1,0.6896551847457886,1],"min":[-1,-1,-1],"type":"VEC3"},{"bufferView":2,"componentType":5126,"count":80,"max":[0.8125,1],"min":[0,0.34375],"type":"VEC2"},{"bufferView":3,"componentType":5123,"count":96,"max":[79],"min":[0],"type":"SCALAR"},{"bufferView":4,"componentType":5126,"count":80,"max":[0.625,10,0.625],"min":[-0.625,3.125,-0.625],"type":"VEC3"},{"bufferView":5,"componentType":5126,"count":80,"max":[1,0.5368754863739014,1],"min":[-1,-1,-1],"type":"VEC3"},{"bufferView":6,"componentType":5126,"count":80,"max":[1,0.59375],"min":[0.03125,0],"type":"VEC2"},{"bufferView":7,"componentType":5123,"count":96,"max":[79],"min":[0],"type":"SCALAR"},{"bufferView":8,"componentType":5126,"count":16,"max":[0.3125,3.125,0.3125],"min":[-0.3125,0,-0.625],"type":"VEC3"},{"bufferView":9,"componentType":5126,"count":16,"max":[0.9950371980667114,0.2873478829860687,0.9578262567520142],"min":[-0.9950371980667114,-1,-0.9950371980667114],"type":"VEC3"},{"bufferView":10,"componentType":5126,"count":16,"max":[1,1],"min":[0.78125,0.625],"type":"VEC2"},{"bufferView":11,"componentType":5123,"count":18,"max":[15],"min":[0],"type":"SCALAR"},{"bufferView":12,"componentType":5126,"count":16,"max":[0.3125,3.125,0.3125],"min":[-0.3125,0,-0.625],"type":"VEC3"},{"bufferView":13,"componentType":5126,"count":16,"max":[0.9950371980667114,0.2873478829860687,0.9578262567520142],"min":[-0.9950371980667114,-1,-0.9950371980667114],"type":"VEC3"},{"bufferView":14,"componentType":5126,"count":16,"max":[1,1],"min":[0.78125,0.625],"type":"VEC2"},{"bufferView":15,"componentType":5123,"count":18,"max":[15],"min":[0],"type":"SCALAR"},{"bufferView":16,"componentType":5126,"count":16,"max":[0.3125,3.125,0.3125],"min":[-0.3125,0,-0.625],"type":"VEC3"},{"bufferView":17,"componentType":5126,"count":16,"max":[0.9950371980667114,0.2873478829860687,0.9578262567520142],"min":[-0.9950371980667114,-1,-0.9950371980667114],"type":"VEC3"},{"bufferView":18,"componentType":5126,"count":16,"max":[1,1],"min":[0.78125,0.625],"type":"VEC2"},{"bufferView":19,"componentType":5123,"count":18,"max":[15],"min":[0],"type":"SCALAR"},{"bufferView":20,"componentType":5126,"count":16,"max":[0.3125,3.125,0.3125],"min":[-0.3125,0,-0.625],"type":"VEC3"},{"bufferView":21,"componentType":5126,"count":16,"max":[0.9950371980667114,0.2873478829860687,0.9578262567520142],"min":[-0.9950371980667114,-1,-0.9950371980667114],"type":"VEC3"},{"bufferView":22,"componentType":5126,"count":16,"max":[1,1],"min":[0.78125,0.625],"type":"VEC2"},{"bufferView":23,"componentType":5123,"count":18,"max":[15],"min":[0],"type":"SCALAR"},{"bufferView":24,"componentType":5126,"count":80,"max":[2.5,5.625,2.5],"min":[-2.5,1.25,-2.5],"type":"VEC3"},{"bufferView":25,"componentType":5126,"count":80,"max":[1,0.6896551847457886,1],"min":[-1,-1,-1],"type":"VEC3"},{"bufferView":26,"componentType":5126,"count":80,"max":[0.8125,1],"min":[0,0.34375],"type":"VEC2"},{"bufferView":27,"componentType":5123,"count":96,"max":[79],"min":[0],"type":"SCALAR"}],"materials":[{"pbrMetallicRoughness":{"metallicFactor":0,"roughnessFactor":1,"baseColorTexture":{"index":0}},"alphaMode":"MASK","alphaCutoff":0.05,"doubleSided":true}],"textures":[{"sampler":0,"source":0,"name":"llt_base"}],"samplers":[{"magFilter":9728,"minFilter":9728,"wrapS":33071,"wrapT":33071}],"images":[{"mimeType":"image/png","name":"llt_base_texture.png","uri":"llt_base_texture.png"}],"meshes":[{"primitives":[{"mode":4,"attributes":{"POSITION":0,"NORMAL":1,"TEXCOORD_0":2},"indices":3,"material":0}]},{"primitives":[{"mode":4,"attributes":{"POSITION":4,"NORMAL":5,"TEXCOORD_0":6},"indices":7,"material":0}]},{"primitives":[{"mode":4,"attributes":{"POSITION":8,"NORMAL":9,"TEXCOORD_0":10},"indices":11,"material":0}]},{"primitives":[{"mode":4,"attributes":{"POSITION":12,"NORMAL":13,"TEXCOORD_0":14},"indices":15,"material":0}]},{"primitives":[{"mode":4,"attributes":{"POSITION":16,"NORMAL":17,"TEXCOORD_0":18},"indices":19,"material":0}]},{"primitives":[{"mode":4,"attributes":{"POSITION":20,"NORMAL":21,"TEXCOORD_0":22},"indices":23,"material":0}]},{"primitives":[{"mode":4,"attributes":{"POSITION":24,"NORMAL":25,"TEXCOORD_0":26},"indices":27,"material":0}]}]}